<svg width="150" height="60" viewBox="0 0 150 60" fill="none" xmlns="http://www.w3.org/2000/svg">
<path d="M63.664 26.2C63.344 26.2 63.184 26.0507 63.184 25.752C63.184 25.6987 63.1893 25.464 63.2 25.048C63.2213 24.632 63.2373 24.1147 63.248 23.496C63.2693 22.8773 63.28 22.248 63.28 21.608V21.592C63.28 21.5387 63.2533 21.5067 63.2 21.496C63.1467 21.4747 63.104 21.4853 63.072 21.528C62.4427 22.3493 61.776 23.0693 61.072 23.688C60.368 24.3067 59.6747 24.8347 58.992 25.272C58.9493 25.2933 58.9173 25.304 58.896 25.304C58.8533 25.304 58.8107 25.2827 58.768 25.24C58.7467 25.2187 58.736 25.1813 58.736 25.128C58.736 25.0747 58.752 25.032 58.784 25C59.5413 24.3067 60.2187 23.4533 60.816 22.44C61.424 21.416 61.9253 20.3547 62.32 19.256L62.336 19.192C62.336 19.0533 62.2667 18.984 62.128 18.984H60.896C60.8213 18.984 60.7573 19.0107 60.704 19.064C60.6613 19.1173 60.64 19.1813 60.64 19.256L60.656 19.32C60.6773 19.7253 60.576 20.0293 60.352 20.232C60.128 20.424 59.8933 20.52 59.648 20.52C59.4987 20.52 59.36 20.472 59.232 20.376C59.104 20.28 59.0293 20.1413 59.008 19.96C58.976 19.6827 58.928 19.416 58.864 19.16C58.8 18.8933 58.7093 18.648 58.592 18.424C58.56 18.392 58.5227 18.376 58.48 18.376C58.4053 18.376 58.368 18.4133 58.368 18.488V25.56C58.368 25.7413 58.2293 25.8853 57.952 25.992C57.6747 26.0987 57.3493 26.152 56.976 26.152C56.688 26.152 56.544 26.0187 56.544 25.752C56.544 25.6987 56.5493 25.5387 56.56 25.272C56.5707 25.016 56.5867 24.696 56.608 24.312C56.6293 23.9173 56.6453 23.496 56.656 23.048C56.6773 22.6 56.6933 22.1573 56.704 21.72C56.7253 21.2827 56.736 20.8933 56.736 20.552C56.736 20.4987 56.7093 20.4613 56.656 20.44C56.6027 20.4187 56.56 20.4347 56.528 20.488C56.2613 20.9467 55.9787 21.3787 55.68 21.784C55.3813 22.1787 55.0827 22.5467 54.784 22.888C54.72 22.9733 54.6453 22.984 54.56 22.92C54.464 22.8667 54.4427 22.792 54.496 22.696C54.7627 22.1627 55.0293 21.544 55.296 20.84C55.5627 20.1253 55.808 19.368 56.032 18.568C56.256 17.7573 56.432 16.936 56.56 16.104L56.576 16.056C56.576 15.896 56.4907 15.816 56.32 15.816C56.0853 15.8267 55.872 15.8373 55.68 15.848C55.4987 15.848 55.344 15.8533 55.216 15.864H55.184C55.0133 15.864 54.9013 15.784 54.848 15.624L54.816 15.496L54.8 15.448C54.8 15.384 54.8213 15.3307 54.864 15.288C54.9173 15.2453 54.9707 15.2293 55.024 15.24C55.184 15.2613 55.392 15.2827 55.648 15.304C55.904 15.3253 56.1653 15.336 56.432 15.336C56.6347 15.336 56.736 15.24 56.736 15.048V13.464C56.736 12.9733 56.72 12.616 56.688 12.392C56.6667 12.1573 56.6347 11.9813 56.592 11.864C56.5813 11.8107 56.5813 11.7627 56.592 11.72C56.624 11.688 56.6667 11.6773 56.72 11.688C56.8587 11.688 57.0667 11.7093 57.344 11.752C57.6213 11.784 57.8987 11.8267 58.176 11.88C58.4533 11.9333 58.6667 11.9813 58.816 12.024C58.912 12.056 58.96 12.1307 58.96 12.248C58.96 12.408 58.896 12.4987 58.768 12.52C58.6187 12.5413 58.512 12.5787 58.448 12.632C58.3947 12.6853 58.368 12.8027 58.368 12.984V15.096C58.368 15.2133 58.4267 15.272 58.544 15.272C58.5973 15.272 58.64 15.2507 58.672 15.208L58.688 15.192L59.232 14.424C59.2747 14.3707 59.3333 14.344 59.408 14.344C59.4827 14.344 59.5467 14.3653 59.6 14.408C59.728 14.5147 59.8667 14.6427 60.016 14.792C60.1653 14.9307 60.304 15.0693 60.432 15.208C60.4533 15.2293 60.4853 15.24 60.528 15.24C60.6133 15.24 60.656 15.2027 60.656 15.128C60.6987 14.8507 60.7307 14.5733 60.752 14.296C60.7733 14.0187 60.784 13.7467 60.784 13.48C60.784 13.3307 60.7787 13.2133 60.768 13.128C60.7573 13.032 60.752 12.9573 60.752 12.904V12.808C60.752 12.7333 60.8053 12.696 60.912 12.696C61.0507 12.7067 61.2533 12.7387 61.52 12.792C61.7973 12.8453 62.0693 12.904 62.336 12.968C62.6133 13.0213 62.8267 13.0693 62.976 13.112C63.0827 13.1547 63.136 13.2293 63.136 13.336C63.136 13.4853 63.056 13.5707 62.896 13.592C62.7467 13.6347 62.6293 13.7627 62.544 13.976C62.4907 14.168 62.432 14.3547 62.368 14.536C62.304 14.7173 62.2293 14.8987 62.144 15.08C62.1333 15.0907 62.128 15.112 62.128 15.144C62.128 15.2827 62.192 15.352 62.32 15.352H63.008C63.0933 15.352 63.1627 15.32 63.216 15.256C63.2693 15.192 63.296 15.1227 63.296 15.048V13.144C63.296 12.8347 63.2907 12.5947 63.28 12.424C63.2693 12.2427 63.2373 12.0987 63.184 11.992C63.152 11.928 63.136 11.88 63.136 11.848C63.136 11.7413 63.2053 11.688 63.344 11.688C63.4933 11.688 63.7013 11.704 63.968 11.736C64.2453 11.768 64.5173 11.8053 64.784 11.848C65.0507 11.8907 65.2587 11.928 65.408 11.96C65.536 12.0027 65.6 12.104 65.6 12.264C65.5893 12.4027 65.4987 12.4827 65.328 12.504C65.1253 12.536 65.024 12.648 65.024 12.84V15.048C65.024 15.1227 65.0507 15.192 65.104 15.256C65.168 15.32 65.2373 15.352 65.312 15.352H65.936C66.0853 15.352 66.1973 15.2987 66.272 15.192C66.336 15.0853 66.4267 14.9467 66.544 14.776C66.6613 14.5947 66.7467 14.456 66.8 14.36C66.8533 14.2747 66.9227 14.232 67.008 14.232C67.0613 14.232 67.12 14.248 67.184 14.28C67.3973 14.408 67.6373 14.5893 67.904 14.824C68.1813 15.048 68.3893 15.2507 68.528 15.432C68.5813 15.4853 68.608 15.5493 68.608 15.624C68.608 15.7627 68.5493 15.832 68.432 15.832H65.312C65.2373 15.832 65.168 15.8587 65.104 15.912C65.0507 15.9653 65.024 16.0347 65.024 16.12V18.2C65.024 18.4027 65.12 18.504 65.312 18.504H66.336C66.4853 18.504 66.592 18.4507 66.656 18.344C66.6987 18.28 66.7627 18.184 66.848 18.056C66.9333 17.928 67.0187 17.8053 67.104 17.688C67.2 17.56 67.2693 17.464 67.312 17.4C67.376 17.3147 67.4507 17.272 67.536 17.272C67.5787 17.272 67.632 17.288 67.696 17.32C67.8347 17.3947 68 17.512 68.192 17.672C68.3947 17.832 68.5867 17.9973 68.768 18.168C68.96 18.328 69.0987 18.4667 69.184 18.584C69.2373 18.6587 69.264 18.7227 69.264 18.776C69.264 18.9147 69.2053 18.984 69.088 18.984H65.44C65.3653 18.984 65.3067 19.016 65.264 19.08C65.232 19.1333 65.232 19.192 65.264 19.256C65.52 19.8107 65.888 20.3493 66.368 20.872C66.848 21.3947 67.3653 21.8533 67.92 22.248C68.4853 22.6427 69.008 22.9467 69.488 23.16C69.5413 23.1813 69.568 23.224 69.568 23.288C69.568 23.3413 69.5467 23.384 69.504 23.416C69.2053 23.5867 68.928 23.8 68.672 24.056C68.416 24.3013 68.208 24.536 68.048 24.76C68.016 24.8453 67.9467 24.888 67.84 24.888C67.7973 24.888 67.744 24.8667 67.68 24.824C67.2 24.408 66.736 23.8373 66.288 23.112C65.84 22.376 65.4933 21.5547 65.248 20.648C65.2373 20.5947 65.2 20.568 65.136 20.568C65.0613 20.568 65.024 20.6053 65.024 20.68C65.024 21.256 65.0293 21.8213 65.04 22.376C65.0507 22.92 65.056 23.4213 65.056 23.88C65.0667 24.328 65.0773 24.7013 65.088 25C65.0987 25.288 65.104 25.464 65.104 25.528C65.104 25.7307 64.9653 25.8907 64.688 26.008C64.4107 26.136 64.0693 26.2 63.664 26.2ZM60.448 18.504H63.008C63.2 18.504 63.296 18.4027 63.296 18.2V16.12C63.296 16.0347 63.2693 15.9653 63.216 15.912C63.1627 15.8587 63.0933 15.832 63.008 15.832H62.096C61.904 15.832 61.7653 15.9173 61.68 16.088C61.4667 16.4827 61.2373 16.8613 60.992 17.224C60.7573 17.576 60.5013 17.9067 60.224 18.216C60.1707 18.2907 60.1707 18.3547 60.224 18.408C60.288 18.472 60.3627 18.504 60.448 18.504ZM59.632 17.96C59.6747 17.9813 59.7067 17.992 59.728 17.992C59.8453 17.992 59.9307 17.9333 59.984 17.816C60.08 17.5707 60.1707 17.304 60.256 17.016C60.3413 16.7173 60.416 16.4133 60.48 16.104L60.496 16.056C60.496 15.992 60.4693 15.9387 60.416 15.896C60.3733 15.8427 60.32 15.816 60.256 15.816H58.656C58.464 15.816 58.368 15.9173 58.368 16.12V17.272C58.368 17.4747 58.464 17.592 58.656 17.624C59.008 17.688 59.3333 17.8 59.632 17.96ZM85.056 25.928C84.896 26.088 84.656 26.168 84.336 26.168C84.1013 26.168 83.8293 26.1093 83.52 25.992C83.2213 25.8853 82.9013 25.7093 82.56 25.464C82.0693 25.1013 81.5947 24.6693 81.136 24.168C80.688 23.656 80.2773 23.0427 79.904 22.328C79.5307 21.6027 79.216 20.7387 78.96 19.736C78.704 18.7227 78.5227 17.528 78.416 16.152C78.416 16.0667 78.384 15.9973 78.32 15.944C78.2667 15.8907 78.1973 15.864 78.112 15.864H72.64C72.352 15.864 72.08 15.8693 71.824 15.88C71.568 15.8907 71.3547 15.9013 71.184 15.912H71.152C70.9813 15.912 70.8747 15.8267 70.832 15.656L70.784 15.512C70.784 15.448 70.8053 15.3947 70.848 15.352C70.9013 15.3093 70.96 15.2933 71.024 15.304C71.2053 15.3147 71.4453 15.3307 71.744 15.352C72.0427 15.3733 72.3413 15.384 72.64 15.384H78.08C78.1653 15.384 78.2347 15.3573 78.288 15.304C78.3413 15.24 78.3627 15.1707 78.352 15.096C78.3413 14.8293 78.3307 14.5627 78.32 14.296C78.32 14.0293 78.32 13.7573 78.32 13.48C78.32 13.0213 78.2987 12.68 78.256 12.456C78.224 12.2213 78.176 12.0347 78.112 11.896C78.0907 11.832 78.096 11.784 78.128 11.752C78.1707 11.6987 78.2187 11.6773 78.272 11.688C78.464 11.6987 78.704 11.7253 78.992 11.768C79.2907 11.8107 79.5893 11.8587 79.888 11.912C80.1867 11.9653 80.4267 12.0187 80.608 12.072C80.7253 12.1147 80.784 12.2 80.784 12.328C80.7733 12.4027 80.7467 12.456 80.704 12.488C80.6613 12.52 80.6133 12.5413 80.56 12.552C80.4533 12.5627 80.3787 12.5893 80.336 12.632C80.304 12.6747 80.2827 12.7547 80.272 12.872C80.24 13.4587 80.224 14.024 80.224 14.568V15.08C80.224 15.2827 80.3253 15.384 80.528 15.384H82.144C82.2507 15.384 82.3253 15.3787 82.368 15.368C82.4213 15.3467 82.4747 15.2987 82.528 15.224C82.5813 15.16 82.6507 15.0693 82.736 14.952C82.832 14.8347 82.9227 14.7173 83.008 14.6C83.104 14.472 83.168 14.3867 83.2 14.344C83.264 14.2587 83.3333 14.216 83.408 14.216C83.536 14.216 83.7173 14.296 83.952 14.456C84.1867 14.6053 84.416 14.776 84.64 14.968C84.8747 15.16 85.04 15.3253 85.136 15.464C85.1893 15.5387 85.216 15.6027 85.216 15.656C85.216 15.7947 85.152 15.864 85.024 15.864H80.544C80.4693 15.864 80.4 15.8907 80.336 15.944C80.2827 15.9973 80.2613 16.0667 80.272 16.152C80.3573 17.528 80.544 18.68 80.832 19.608C81.12 20.536 81.4667 21.2933 81.872 21.88C82.288 22.4667 82.7147 22.9413 83.152 23.304C83.2693 23.4 83.376 23.448 83.472 23.448C83.6 23.448 83.7227 23.3467 83.84 23.144C83.9253 22.984 84.0267 22.7653 84.144 22.488C84.272 22.2107 84.4 21.9227 84.528 21.624C84.6667 21.3253 84.784 21.0747 84.88 20.872C84.912 20.7973 84.976 20.7493 85.072 20.728H85.104C85.2 20.728 85.2373 20.7813 85.216 20.888C85.1733 21.112 85.12 21.3787 85.056 21.688C85.0027 21.9867 84.944 22.2853 84.88 22.584C84.8267 22.8827 84.7787 23.144 84.736 23.368C84.7253 23.4107 84.7147 23.4587 84.704 23.512C84.704 23.5547 84.704 23.6027 84.704 23.656C84.704 23.9013 84.8 24.136 84.992 24.36C85.0987 24.4773 85.184 24.616 85.248 24.776C85.312 24.9253 85.344 25.0853 85.344 25.256C85.344 25.3733 85.3227 25.4907 85.28 25.608C85.2373 25.7253 85.1627 25.832 85.056 25.928ZM72.352 26.184C72.3093 26.2053 72.2667 26.216 72.224 26.216C72.1493 26.216 72.08 26.1787 72.016 26.104C71.9733 26.0293 71.8933 25.88 71.776 25.656C71.6587 25.4427 71.5307 25.2027 71.392 24.936C71.2533 24.6693 71.12 24.4133 70.992 24.168C70.8747 23.9227 70.784 23.736 70.72 23.608C70.6773 23.5333 70.672 23.4747 70.704 23.432C70.7253 23.3787 70.7733 23.352 70.848 23.352C71.0293 23.32 71.264 23.288 71.552 23.256C71.7973 23.2347 72.064 23.208 72.352 23.176C72.6507 23.144 72.9653 23.1067 73.296 23.064C73.3813 23.0533 73.4507 23.016 73.504 22.952C73.5573 22.888 73.584 22.8187 73.584 22.744V19.32C73.584 19.2347 73.5573 19.1653 73.504 19.112C73.4507 19.0587 73.3813 19.032 73.296 19.032H72.416C71.9147 19.032 71.5413 19.048 71.296 19.08H71.264C71.0933 19.08 70.9813 18.9947 70.928 18.824L70.912 18.744L70.896 18.696C70.896 18.632 70.9173 18.5787 70.96 18.536C71.0133 18.4933 71.0667 18.4773 71.12 18.488C71.2693 18.4987 71.456 18.5147 71.68 18.536C71.904 18.5467 72.1493 18.552 72.416 18.552H75.664C75.76 18.552 75.8347 18.5467 75.888 18.536C75.9413 18.5147 75.9893 18.4667 76.032 18.392C76.0853 18.3387 76.1547 18.248 76.24 18.12C76.336 17.992 76.432 17.864 76.528 17.736C76.624 17.5973 76.6933 17.5067 76.736 17.464C76.8 17.3787 76.8747 17.336 76.96 17.336C77.024 17.336 77.0773 17.352 77.12 17.384C77.3547 17.5333 77.616 17.736 77.904 17.992C78.192 18.2373 78.4 18.4507 78.528 18.632C78.5813 18.7067 78.608 18.7707 78.608 18.824C78.608 18.9627 78.5493 19.032 78.432 19.032H75.856C75.7813 19.032 75.712 19.0587 75.648 19.112C75.5947 19.1653 75.568 19.2347 75.568 19.32V22.52C75.568 22.5947 75.5947 22.664 75.648 22.728C75.712 22.7813 75.7813 22.8027 75.856 22.792C76.5387 22.7067 77.184 22.6373 77.792 22.584C78.4 22.52 78.8853 22.472 79.248 22.44H79.28C79.376 22.44 79.4347 22.488 79.456 22.584V22.616C79.456 22.712 79.4133 22.776 79.328 22.808C79.0507 22.904 78.688 23.0373 78.24 23.208C77.792 23.368 77.3067 23.5547 76.784 23.768C76.2613 23.9707 75.7387 24.1787 75.216 24.392C74.6933 24.6053 74.2133 24.808 73.776 25C73.3387 25.192 72.9813 25.3573 72.704 25.496C72.544 25.5707 72.48 25.6987 72.512 25.88L72.528 25.944C72.528 26.04 72.4693 26.12 72.352 26.184ZM82.4 14.536C82.2613 14.536 82.1333 14.4987 82.016 14.424C81.9093 14.3493 81.84 14.2427 81.808 14.104C81.7227 13.752 81.6107 13.4533 81.472 13.208C81.3333 12.952 81.152 12.744 80.928 12.584C80.864 12.552 80.832 12.4933 80.832 12.408C80.832 12.2693 80.9013 12.2 81.04 12.2C81.7653 12.2107 82.3307 12.3333 82.736 12.568C83.1413 12.8027 83.344 13.1547 83.344 13.624C83.344 13.9227 83.2373 14.152 83.024 14.312C82.8213 14.4613 82.6133 14.536 82.4 14.536ZM89.2 26.296C89.1787 26.3067 89.1467 26.312 89.104 26.312C89.0293 26.312 88.9653 26.28 88.912 26.216C88.8587 26.0987 88.7787 25.928 88.672 25.704C88.5653 25.4907 88.4533 25.2507 88.336 24.984C88.2187 24.7173 88.1067 24.472 88 24.248C87.904 24.0133 87.8293 23.832 87.776 23.704C87.7547 23.6293 87.76 23.576 87.792 23.544C87.8347 23.5227 87.872 23.512 87.904 23.512L90.256 23.464C90.4587 23.4427 90.5867 23.3467 90.64 23.176C90.7573 22.8027 90.864 22.408 90.96 21.992C91.056 21.5653 91.1413 21.176 91.216 20.824V20.776C91.216 20.616 91.1413 20.536 90.992 20.536H89.072C88.784 20.536 88.512 20.5413 88.256 20.552C88 20.5627 87.792 20.5787 87.632 20.6H87.6C87.4187 20.6 87.3067 20.5147 87.264 20.344L87.232 20.216L87.216 20.168C87.216 20.104 87.2373 20.0507 87.28 20.008C87.3333 19.9653 87.3867 19.9493 87.44 19.96C87.632 19.9707 87.8773 19.992 88.176 20.024C88.4747 20.0453 88.7733 20.056 89.072 20.056H97.536C97.6427 20.056 97.728 20.0507 97.792 20.04C97.856 20.0187 97.9093 19.9707 97.952 19.896C98.0373 19.7573 98.1493 19.5867 98.288 19.384C98.4267 19.1707 98.5333 19.0053 98.608 18.888C98.672 18.792 98.7467 18.744 98.832 18.744C98.864 18.744 98.896 18.7493 98.928 18.76C98.96 18.7707 98.992 18.7867 99.024 18.808C99.184 18.8933 99.3707 19.0213 99.584 19.192C99.808 19.352 100.021 19.5173 100.224 19.688C100.427 19.8587 100.571 19.992 100.656 20.088C100.731 20.152 100.768 20.2267 100.768 20.312C100.768 20.4613 100.693 20.536 100.544 20.536H94.304C94.112 20.536 93.952 20.616 93.824 20.776C93.504 21.192 93.152 21.6133 92.768 22.04C92.3947 22.456 92.0213 22.8507 91.648 23.224C91.616 23.256 91.6 23.288 91.6 23.32C91.6 23.4053 91.6427 23.4373 91.728 23.416C92.5493 23.3947 93.3867 23.3787 94.24 23.368C95.0933 23.3467 95.824 23.3307 96.432 23.32C96.4853 23.32 96.5227 23.2987 96.544 23.256C96.576 23.2027 96.5707 23.1547 96.528 23.112C96.2933 22.8667 96.0373 22.6373 95.76 22.424C95.4933 22.2 95.2 22.0027 94.88 21.832C94.816 21.8 94.784 21.7467 94.784 21.672C94.784 21.6187 94.8053 21.576 94.848 21.544C94.9013 21.5013 94.9493 21.4853 94.992 21.496C95.7813 21.6133 96.5333 21.7893 97.248 22.024C97.9627 22.2587 98.5653 22.5573 99.056 22.92C99.5467 23.272 99.8507 23.6827 99.968 24.152C100.032 24.3547 100.064 24.552 100.064 24.744C100.064 25.0427 100 25.2933 99.872 25.496C99.744 25.7093 99.5893 25.864 99.408 25.96C99.2373 26.0453 99.0773 26.088 98.928 26.088C98.7787 26.088 98.6347 26.0453 98.496 25.96C98.368 25.8747 98.2667 25.7467 98.192 25.576C98.0853 25.3307 97.9573 25.08 97.808 24.824C97.6587 24.5573 97.4933 24.296 97.312 24.04C97.2053 23.88 97.056 23.8213 96.864 23.864C96.4373 23.9707 95.952 24.088 95.408 24.216C94.864 24.344 94.304 24.4773 93.728 24.616C93.1627 24.7547 92.6133 24.888 92.08 25.016C91.5467 25.1547 91.0613 25.2773 90.624 25.384C90.1973 25.4907 89.8613 25.576 89.616 25.64C89.4133 25.704 89.328 25.8373 89.36 26.04V26.072C89.36 26.168 89.3067 26.2427 89.2 26.296ZM86.672 18.84C86.6507 18.8507 86.624 18.856 86.592 18.856C86.528 18.856 86.48 18.824 86.448 18.76C86.4267 18.7173 86.416 18.6907 86.416 18.68C86.416 18.616 86.448 18.568 86.512 18.536C87.184 18.1413 87.8507 17.624 88.512 16.984C89.1733 16.3333 89.776 15.608 90.32 14.808C90.8747 13.9973 91.312 13.1547 91.632 12.28C91.7067 12.0773 91.7547 11.912 91.776 11.784C91.7973 11.656 91.8133 11.5707 91.824 11.528C91.824 11.464 91.8347 11.4213 91.856 11.4C91.888 11.3467 91.936 11.3307 92 11.352C92.0213 11.352 92.1493 11.384 92.384 11.448C92.6293 11.512 92.912 11.5867 93.232 11.672C93.5627 11.7573 93.8667 11.8427 94.144 11.928C94.432 12.0027 94.6347 12.0613 94.752 12.104C94.816 12.1147 94.8587 12.152 94.88 12.216C94.9013 12.28 94.9013 12.3387 94.88 12.392C94.8587 12.4347 94.848 12.456 94.848 12.456C94.8053 12.5093 94.784 12.584 94.784 12.68C94.784 12.776 94.8053 12.8507 94.848 12.904C95.232 13.544 95.7653 14.0827 96.448 14.52C97.1413 14.9573 97.904 15.3147 98.736 15.592C99.568 15.8587 100.4 16.0667 101.232 16.216C101.285 16.2267 101.317 16.2587 101.328 16.312C101.339 16.3547 101.323 16.392 101.28 16.424C100.981 16.6373 100.688 16.9147 100.4 17.256C100.123 17.5973 99.9093 17.9227 99.76 18.232C99.728 18.3067 99.6747 18.36 99.6 18.392C99.5253 18.4133 99.4507 18.408 99.376 18.376C98.6933 18.0453 98.0107 17.6133 97.328 17.08C96.656 16.536 96.0533 15.9013 95.52 15.176C94.9973 14.4507 94.608 13.6453 94.352 12.76C94.32 12.6747 94.2613 12.632 94.176 12.632C94.112 12.632 94.064 12.6587 94.032 12.712L94.016 12.728C93.0773 14.2427 91.9627 15.512 90.672 16.536C89.3813 17.5493 88.048 18.3173 86.672 18.84ZM90.08 18.04H90.048C89.8773 18.04 89.7653 17.9547 89.712 17.784L89.68 17.656V17.608C89.68 17.5547 89.696 17.5067 89.728 17.464C89.7707 17.4107 89.824 17.3893 89.888 17.4C90.0693 17.4213 90.3147 17.4427 90.624 17.464C90.9333 17.4853 91.2373 17.496 91.536 17.496H94.192C94.3093 17.496 94.3947 17.4907 94.448 17.48C94.512 17.4587 94.5707 17.4107 94.624 17.336C94.7093 17.2187 94.816 17.0693 94.944 16.888C95.072 16.696 95.1787 16.5413 95.264 16.424C95.328 16.328 95.408 16.28 95.504 16.28C95.5787 16.28 95.6427 16.3013 95.696 16.344C95.824 16.4293 95.9787 16.5467 96.16 16.696C96.352 16.8453 96.5387 17 96.72 17.16C96.9013 17.3093 97.0347 17.4373 97.12 17.544C97.184 17.608 97.216 17.6773 97.216 17.752C97.216 17.912 97.1467 17.992 97.008 17.992H91.536C91.248 17.992 90.9707 17.9973 90.704 18.008C90.448 18.0187 90.24 18.0293 90.08 18.04ZM107.984 25.544H107.936C107.744 25.544 107.637 25.4587 107.616 25.288L107.568 25.16L107.552 25.112C107.552 25.048 107.573 24.9947 107.616 24.952C107.669 24.9093 107.728 24.8933 107.792 24.904C107.973 24.9147 108.213 24.936 108.512 24.968C108.811 24.9893 109.109 25 109.408 25H111.248C111.333 25 111.403 24.9733 111.456 24.92C111.52 24.856 111.552 24.7867 111.552 24.712V17.848C111.552 17.7627 111.52 17.6933 111.456 17.64C111.403 17.5867 111.333 17.56 111.248 17.56H110.448C110.16 17.56 109.883 17.5653 109.616 17.576C109.36 17.5867 109.152 17.5973 108.992 17.608H108.96C108.789 17.608 108.677 17.5227 108.624 17.352L108.592 17.224V17.176C108.592 17.1227 108.613 17.0747 108.656 17.032C108.699 16.9787 108.747 16.9573 108.8 16.968C108.981 16.9893 109.227 17.0107 109.536 17.032C109.845 17.0533 110.149 17.064 110.448 17.064H111.248C111.333 17.064 111.403 17.0373 111.456 16.984C111.52 16.92 111.552 16.8507 111.552 16.776V14.184C111.552 13.5867 111.531 13.096 111.488 12.712C111.445 12.328 111.397 12.0827 111.344 11.976C111.301 11.8907 111.301 11.816 111.344 11.752C111.387 11.7093 111.44 11.688 111.504 11.688C111.621 11.688 111.787 11.6987 112 11.72C112.224 11.7413 112.459 11.768 112.704 11.8C112.949 11.832 113.179 11.8693 113.392 11.912C113.616 11.944 113.781 11.9707 113.888 11.992C114.016 12.0347 114.08 12.12 114.08 12.248C114.08 12.4187 113.995 12.5147 113.824 12.536C113.579 12.568 113.456 12.6853 113.456 12.888V16.776C113.456 16.8507 113.483 16.92 113.536 16.984C113.6 17.0373 113.669 17.064 113.744 17.064H114.176C114.347 17.064 114.469 17.0107 114.544 16.904L115.152 16.024C115.216 15.9387 115.285 15.896 115.36 15.896C115.424 15.896 115.525 15.944 115.664 16.04C115.813 16.136 115.973 16.2533 116.144 16.392C116.325 16.5307 116.491 16.6693 116.64 16.808C116.789 16.9467 116.901 17.0587 116.976 17.144C117.029 17.2187 117.056 17.2827 117.056 17.336C117.056 17.4853 116.992 17.56 116.864 17.56H113.744C113.669 17.56 113.6 17.5867 113.536 17.64C113.483 17.6933 113.456 17.7627 113.456 17.848V24.712C113.456 24.7867 113.483 24.856 113.536 24.92C113.6 24.9733 113.669 25 113.744 25H114.24C114.421 25 114.549 24.9413 114.624 24.824C114.677 24.76 114.747 24.664 114.832 24.536C114.928 24.3973 115.019 24.264 115.104 24.136C115.2 23.9973 115.269 23.896 115.312 23.832C115.376 23.736 115.451 23.688 115.536 23.688C115.568 23.688 115.6 23.6933 115.632 23.704C115.664 23.7147 115.701 23.7307 115.744 23.752C115.893 23.8373 116.075 23.9653 116.288 24.136C116.501 24.296 116.704 24.4613 116.896 24.632C117.099 24.792 117.243 24.9253 117.328 25.032C117.392 25.096 117.424 25.1707 117.424 25.256C117.424 25.4053 117.355 25.48 117.216 25.48H109.424C109.125 25.48 108.848 25.4853 108.592 25.496C108.336 25.5067 108.133 25.5227 107.984 25.544ZM105.184 26.168C104.885 26.168 104.736 26.0347 104.736 25.768C104.736 25.7147 104.741 25.5387 104.752 25.24C104.773 24.9413 104.789 24.5573 104.8 24.088C104.821 23.6187 104.837 23.112 104.848 22.568C104.869 22.0133 104.88 21.464 104.88 20.92C104.88 20.8667 104.853 20.8293 104.8 20.808C104.747 20.776 104.699 20.776 104.656 20.808C104.389 21.0427 104.117 21.2667 103.84 21.48C103.563 21.6933 103.28 21.9067 102.992 22.12C102.949 22.1413 102.917 22.152 102.896 22.152C102.843 22.152 102.795 22.1307 102.752 22.088C102.72 22.056 102.704 22.024 102.704 21.992C102.704 21.9493 102.725 21.9067 102.768 21.864C103.291 21.32 103.819 20.696 104.352 19.992C104.885 19.2773 105.381 18.536 105.84 17.768C106.299 17 106.672 16.2533 106.96 15.528C106.971 15.5067 106.976 15.48 106.976 15.448C106.976 15.32 106.912 15.256 106.784 15.256H104.464C104.261 15.256 104.059 15.2613 103.856 15.272C103.664 15.2827 103.499 15.2933 103.36 15.304H103.312C103.131 15.304 103.024 15.2187 102.992 15.048L102.944 14.936L102.928 14.888C102.928 14.824 102.949 14.7707 102.992 14.728C103.045 14.6853 103.104 14.6693 103.168 14.68C103.328 14.7013 103.525 14.7227 103.76 14.744C104.005 14.7653 104.24 14.776 104.464 14.776H104.592C104.677 14.776 104.747 14.7493 104.8 14.696C104.853 14.632 104.88 14.5627 104.88 14.488V12.776C104.88 12.5733 104.869 12.4027 104.848 12.264C104.837 12.1147 104.811 12.008 104.768 11.944C104.736 11.8907 104.731 11.8267 104.752 11.752C104.784 11.6987 104.837 11.672 104.912 11.672C105.051 11.672 105.259 11.6933 105.536 11.736C105.824 11.768 106.107 11.8053 106.384 11.848C106.661 11.8907 106.864 11.928 106.992 11.96C107.109 11.992 107.168 12.0613 107.168 12.168C107.168 12.3493 107.093 12.44 106.944 12.44C106.752 12.472 106.656 12.5787 106.656 12.76V14.488C106.656 14.5627 106.683 14.632 106.736 14.696C106.8 14.7493 106.869 14.776 106.944 14.776H107.008C107.072 14.776 107.136 14.744 107.2 14.68L107.552 14.264C107.627 14.1893 107.712 14.1733 107.808 14.216C107.947 14.28 108.128 14.3813 108.352 14.52C108.576 14.648 108.8 14.7867 109.024 14.936C109.259 15.0747 109.435 15.192 109.552 15.288C109.637 15.352 109.68 15.4373 109.68 15.544C109.68 15.704 109.589 15.8 109.408 15.832C109.323 15.8533 109.253 15.8747 109.2 15.896C109.072 15.9387 108.944 16.0507 108.816 16.232C108.571 16.6053 108.309 16.9733 108.032 17.336C107.755 17.6987 107.461 18.056 107.152 18.408C107.12 18.44 107.104 18.472 107.104 18.504C107.104 18.5787 107.152 18.6267 107.248 18.648C107.717 18.7013 108.139 18.8027 108.512 18.952C108.896 19.0907 109.2 19.2933 109.424 19.56C109.659 19.8267 109.776 20.1627 109.776 20.568C109.776 20.8667 109.707 21.112 109.568 21.304C109.429 21.496 109.264 21.6347 109.072 21.72C108.933 21.7733 108.805 21.8 108.688 21.8C108.528 21.8 108.379 21.7573 108.24 21.672C108.112 21.576 108.027 21.432 107.984 21.24C107.877 20.7707 107.739 20.3653 107.568 20.024C107.408 19.6827 107.184 19.3947 106.896 19.16C106.853 19.1387 106.821 19.128 106.8 19.128C106.704 19.128 106.656 19.176 106.656 19.272V20.872C106.656 21.4053 106.656 21.9387 106.656 22.472C106.667 22.9947 106.672 23.48 106.672 23.928C106.683 24.376 106.688 24.744 106.688 25.032C106.699 25.3307 106.704 25.512 106.704 25.576C106.704 25.7467 106.544 25.8853 106.224 25.992C105.904 26.1093 105.557 26.168 105.184 26.168ZM58.032 48.448C57.9893 48.4693 57.9573 48.48 57.936 48.48C57.8933 48.48 57.8507 48.4587 57.808 48.416C57.7867 48.3733 57.776 48.336 57.776 48.304C57.776 48.2507 57.792 48.208 57.824 48.176C58.4107 47.664 58.9173 47.0187 59.344 46.24C59.7707 45.4613 60.1173 44.624 60.384 43.728C60.6507 42.8213 60.8267 41.9413 60.912 41.088C60.944 40.768 60.96 40.5333 60.96 40.384C60.96 40.2347 60.944 40.1227 60.912 40.048C60.8907 39.9733 60.8533 39.904 60.8 39.84C60.7467 39.7867 60.736 39.7173 60.768 39.632C60.8107 39.5467 60.8747 39.5147 60.96 39.536C61.3227 39.5787 61.7013 39.664 62.096 39.792C62.5013 39.9093 62.8267 40.0747 63.072 40.288C63.1147 40.3307 63.1787 40.352 63.264 40.352C63.3493 40.352 63.4133 40.3253 63.456 40.272C63.68 40.0267 63.8933 39.7867 64.096 39.552C64.3093 39.3067 64.496 39.0827 64.656 38.88C64.6987 38.8267 64.72 38.768 64.72 38.704C64.72 38.5867 64.6187 38.5333 64.416 38.544C63.6267 38.576 62.848 38.6293 62.08 38.704C61.312 38.7787 60.6507 38.8747 60.096 38.992C59.5413 39.1093 59.104 39.2267 58.784 39.344C58.464 39.4507 58.1493 39.504 57.84 39.504C57.4347 39.504 57.0667 39.328 56.736 38.976C56.4053 38.624 56.1813 38.2187 56.064 37.76V37.712C56.064 37.6267 56.096 37.5627 56.16 37.52C56.2347 37.4773 56.3093 37.4773 56.384 37.52C56.5227 37.5947 56.6933 37.6533 56.896 37.696C57.1093 37.728 57.3493 37.744 57.616 37.744C57.8827 37.744 58.176 37.728 58.496 37.696C58.9653 37.6533 59.5093 37.6107 60.128 37.568C60.7573 37.5253 61.4027 37.4827 62.064 37.44C62.7253 37.3973 63.3333 37.36 63.888 37.328C64.1333 37.3067 64.3893 37.264 64.656 37.2C64.9333 37.136 65.1573 37.0453 65.328 36.928C65.4453 36.8427 65.5627 36.8 65.68 36.8C65.808 36.8 65.9253 36.8427 66.032 36.928C66.1707 37.024 66.368 37.1893 66.624 37.424C66.88 37.6587 67.1413 37.904 67.408 38.16C67.6747 38.4053 67.888 38.6187 68.048 38.8C68.1227 38.8747 68.16 38.976 68.16 39.104C68.16 39.2427 68.1067 39.376 68 39.504C67.904 39.6213 67.7867 39.664 67.648 39.632C67.6053 39.6213 67.5627 39.616 67.52 39.616C67.4773 39.6053 67.4347 39.6 67.392 39.6C67.232 39.6 67.072 39.6267 66.912 39.68C66.752 39.7227 66.5973 39.776 66.448 39.84C66.16 39.968 65.8133 40.1173 65.408 40.288C65.0027 40.448 64.608 40.608 64.224 40.768C63.84 40.928 63.5253 41.0667 63.28 41.184C63.088 41.248 62.96 41.376 62.896 41.568C62.864 41.6427 62.832 41.728 62.8 41.824C62.768 41.92 62.7413 42.0213 62.72 42.128C62.4853 42.992 62.1333 43.8187 61.664 44.608C61.2053 45.3973 60.6667 46.1173 60.048 46.768C59.4293 47.4187 58.7573 47.9787 58.032 48.448ZM75.328 46.896C75.2213 46.9707 75.104 47.008 74.976 47.008C74.7947 47.008 74.6133 46.9333 74.432 46.784C73.9093 46.3573 73.5307 45.9627 73.296 45.6C73.0613 45.2267 72.944 44.912 72.944 44.656C72.944 44.5493 72.96 44.4587 72.992 44.384C73.088 44.16 73.2107 43.9733 73.36 43.824C73.4133 43.7707 73.472 43.744 73.536 43.744C73.5893 43.744 73.6427 43.7707 73.696 43.824C73.9733 44.1973 74.3253 44.384 74.752 44.384C74.9867 44.384 75.2533 44.336 75.552 44.24C76.2987 44.0053 77.0827 43.6853 77.904 43.28C78.7253 42.8747 79.5253 42.4213 80.304 41.92C81.0933 41.408 81.8133 40.8853 82.464 40.352C83.1147 39.8187 83.6373 39.3067 84.032 38.816C84.0853 38.7413 84.16 38.7307 84.256 38.784C84.3413 38.848 84.3573 38.9227 84.304 39.008C83.792 39.8613 83.1787 40.7253 82.464 41.6C81.76 42.464 80.896 43.3067 79.872 44.128C78.8587 44.9387 77.632 45.6907 76.192 46.384C76 46.4693 75.8293 46.56 75.68 46.656C75.5413 46.752 75.424 46.832 75.328 46.896ZM75.744 40.4C75.52 40.0373 75.2533 39.6853 74.944 39.344C74.6347 38.992 74.304 38.6773 73.952 38.4C73.6107 38.112 73.264 37.8933 72.912 37.744C72.8373 37.6907 72.8 37.632 72.8 37.568C72.8 37.4507 72.8533 37.392 72.96 37.392C73.0453 37.3813 73.136 37.376 73.232 37.376C73.328 37.376 73.4293 37.376 73.536 37.376C73.888 37.376 74.2613 37.3973 74.656 37.44C75.0613 37.4827 75.4507 37.5627 75.824 37.68C76.208 37.7973 76.544 37.9627 76.832 38.176C77.1307 38.3893 77.3493 38.6613 77.488 38.992C77.584 39.216 77.632 39.4293 77.632 39.632C77.632 39.9947 77.52 40.2933 77.296 40.528C77.072 40.7627 76.8213 40.88 76.544 40.88C76.4053 40.88 76.2667 40.8427 76.128 40.768C75.9893 40.6933 75.8613 40.5707 75.744 40.4ZM88.064 48.352C88.0533 48.3627 88.032 48.368 88 48.368C87.9253 48.368 87.872 48.336 87.84 48.272C87.8293 48.2613 87.824 48.24 87.824 48.208C87.824 48.144 87.8507 48.096 87.904 48.064C90.1013 46.72 91.6053 44.4107 92.416 41.136V41.088C92.416 41.0347 92.3947 40.9867 92.352 40.944C92.3093 40.9013 92.256 40.8907 92.192 40.912C91.7013 41.0187 91.3173 41.1093 91.04 41.184C90.7627 41.248 90.5173 41.28 90.304 41.28C90.1333 41.28 89.9307 41.216 89.696 41.088C89.472 40.96 89.264 40.7733 89.072 40.528C88.88 40.272 88.7467 39.9627 88.672 39.6V39.568C88.672 39.504 88.704 39.4507 88.768 39.408C88.8107 39.3867 88.8427 39.376 88.864 39.376C88.9173 39.376 88.96 39.392 88.992 39.424C89.2053 39.5947 89.6 39.68 90.176 39.68C90.368 39.68 90.672 39.6693 91.088 39.648C91.504 39.6267 91.9573 39.6 92.448 39.568C92.5333 39.568 92.608 39.536 92.672 39.472C92.736 39.408 92.7733 39.3387 92.784 39.264C92.816 39.04 92.848 38.8107 92.88 38.576C92.912 38.3307 92.9387 38.0907 92.96 37.856C92.9707 37.7387 92.976 37.632 92.976 37.536C92.9867 37.44 92.992 37.3547 92.992 37.28C92.992 36.8533 92.8693 36.5973 92.624 36.512C92.5387 36.4907 92.496 36.432 92.496 36.336C92.496 36.24 92.5333 36.176 92.608 36.144C92.896 36.0267 93.1627 35.968 93.408 35.968C93.6427 35.968 93.888 36.0213 94.144 36.128C94.4107 36.2347 94.7093 36.416 95.04 36.672C95.2213 36.8107 95.312 36.9653 95.312 37.136C95.312 37.2107 95.296 37.2907 95.264 37.376C95.232 37.4507 95.1893 37.5307 95.136 37.616C95.0293 37.7867 94.944 37.968 94.88 38.16C94.8267 38.3413 94.7573 38.6613 94.672 39.12V39.152C94.672 39.216 94.6987 39.2747 94.752 39.328C94.8053 39.3707 94.864 39.3867 94.928 39.376L95.856 39.264C96.1333 39.2213 96.3733 39.184 96.576 39.152C96.7893 39.12 96.9493 39.04 97.056 38.912C97.184 38.7733 97.312 38.704 97.44 38.704C97.5467 38.704 97.6693 38.7413 97.808 38.816C98.0427 38.944 98.3093 39.104 98.608 39.296C98.9067 39.4773 99.136 39.6373 99.296 39.776C99.4027 39.872 99.456 39.9893 99.456 40.128C99.456 40.3307 99.3707 40.48 99.2 40.576C98.9333 40.7467 98.768 41.0613 98.704 41.52C98.6187 42.0853 98.512 42.6827 98.384 43.312C98.256 43.9307 98.1067 44.528 97.936 45.104C97.7653 45.68 97.5733 46.176 97.36 46.592C97.1147 47.0933 96.816 47.44 96.464 47.632C96.1227 47.824 95.7227 47.92 95.264 47.92C95.0933 47.92 94.9707 47.8667 94.896 47.76C94.8213 47.6427 94.784 47.4987 94.784 47.328C94.784 47.0507 94.6347 46.768 94.336 46.48C94.0373 46.1813 93.6533 45.9253 93.184 45.712C93.12 45.6693 93.088 45.616 93.088 45.552C93.088 45.4987 93.1093 45.456 93.152 45.424C93.2053 45.392 93.2533 45.3813 93.296 45.392L94.736 45.696C94.7893 45.7067 94.8373 45.7173 94.88 45.728C94.9333 45.728 94.9813 45.728 95.024 45.728C95.3973 45.728 95.6853 45.5573 95.888 45.216C96.0373 44.9493 96.1813 44.5813 96.32 44.112C96.4587 43.632 96.576 43.1093 96.672 42.544C96.7787 41.9787 96.8427 41.4293 96.864 40.896C96.8747 40.736 96.8533 40.6187 96.8 40.544C96.7467 40.4693 96.6293 40.4373 96.448 40.448C96.1493 40.4587 95.8507 40.4747 95.552 40.496C95.2533 40.5173 94.96 40.5387 94.672 40.56C94.5973 40.5707 94.5227 40.608 94.448 40.672C94.384 40.7253 94.3413 40.7947 94.32 40.88C93.9573 42.2773 93.4613 43.4613 92.832 44.432C92.2027 45.4027 91.4827 46.2027 90.672 46.832C89.8613 47.4613 88.992 47.968 88.064 48.352ZM105.744 42.96C105.381 43.0347 105.099 43.0507 104.896 43.008C104.693 42.9653 104.501 42.8747 104.32 42.736C104.117 42.5653 103.936 42.3627 103.776 42.128C103.616 41.8827 103.509 41.6533 103.456 41.44C103.413 41.216 103.44 41.0507 103.536 40.944C103.611 40.8587 103.701 40.8587 103.808 40.944C103.915 41.0293 104.101 41.104 104.368 41.168C104.645 41.232 105.088 41.2747 105.696 41.296C106.304 41.3173 107.157 41.3173 108.256 41.296C109.771 41.264 110.997 41.2107 111.936 41.136C112.885 41.0507 113.611 40.9387 114.112 40.8C114.261 40.7573 114.389 40.736 114.496 40.736C114.613 40.7253 114.757 40.7413 114.928 40.784C115.173 40.8373 115.408 40.928 115.632 41.056C115.867 41.1733 116.053 41.2747 116.192 41.36C116.405 41.4987 116.528 41.68 116.56 41.904C116.592 42.128 116.528 42.3253 116.368 42.496C116.208 42.656 115.941 42.7253 115.568 42.704C115.12 42.672 114.613 42.656 114.048 42.656C113.493 42.656 112.949 42.656 112.416 42.656C112.277 42.656 112.133 42.656 111.984 42.656C111.845 42.656 111.712 42.656 111.584 42.656C111.339 42.656 111.019 42.6613 110.624 42.672C110.229 42.672 109.797 42.6827 109.328 42.704C108.859 42.7147 108.389 42.7307 107.92 42.752C107.461 42.7733 107.04 42.8053 106.656 42.848C106.272 42.88 105.968 42.9173 105.744 42.96ZM118.784 49.12C118.763 49.1307 118.736 49.136 118.704 49.136C118.64 49.136 118.592 49.1093 118.56 49.056C118.539 49.0133 118.528 48.9813 118.528 48.96C118.528 48.9067 118.549 48.864 118.592 48.832C119.029 48.5227 119.419 48.1653 119.76 47.76C120.112 47.344 120.427 46.8853 120.704 46.384C120.757 46.2987 120.784 46.208 120.784 46.112C120.784 46.0267 120.763 45.9467 120.72 45.872C120.496 45.424 120.325 44.928 120.208 44.384C120.091 43.8293 120.021 43.2373 120 42.608L119.984 42.576C119.984 42.4907 120.032 42.4373 120.128 42.416C120.224 42.416 120.283 42.464 120.304 42.56C120.357 43.0507 120.448 43.4987 120.576 43.904C120.704 44.3093 120.875 44.6773 121.088 45.008C121.12 45.0507 121.163 45.072 121.216 45.072C121.28 45.072 121.328 45.04 121.36 44.976C121.755 43.9413 122.032 42.752 122.192 41.408V41.36C122.192 41.2 122.107 41.12 121.936 41.12H121.616C121.435 41.12 121.307 41.2107 121.232 41.392L121.12 41.744C121.077 41.872 120.96 41.9787 120.768 42.064C120.587 42.1387 120.379 42.176 120.144 42.176C119.92 42.176 119.728 42.1387 119.568 42.064C119.323 41.968 119.2 41.8293 119.2 41.648C119.2 41.584 119.221 41.5147 119.264 41.44C119.349 41.2373 119.472 40.928 119.632 40.512C119.803 40.0853 119.984 39.6213 120.176 39.12C120.368 38.608 120.549 38.1227 120.72 37.664C120.891 37.2053 121.029 36.8427 121.136 36.576C121.147 36.5653 121.152 36.544 121.152 36.512C121.152 36.3733 121.083 36.304 120.944 36.304H120.288C120.032 36.304 119.803 36.3093 119.6 36.32C119.397 36.32 119.232 36.3253 119.104 36.336H119.072C118.901 36.336 118.789 36.2507 118.736 36.08L118.704 36L118.688 35.952C118.688 35.888 118.709 35.8347 118.752 35.792C118.805 35.7493 118.859 35.7333 118.912 35.744C119.072 35.7547 119.275 35.7707 119.52 35.792C119.765 35.8133 120.021 35.824 120.288 35.824H121.12C121.227 35.824 121.307 35.7813 121.36 35.696L121.68 35.232C121.723 35.1573 121.792 35.12 121.888 35.12C121.941 35.12 122.075 35.1733 122.288 35.28C122.512 35.3867 122.747 35.5093 122.992 35.648C123.237 35.7867 123.435 35.904 123.584 36C123.691 36.0747 123.744 36.176 123.744 36.304C123.744 36.496 123.653 36.608 123.472 36.64C123.387 36.6613 123.328 36.672 123.296 36.672C123.083 36.7253 122.917 36.88 122.8 37.136L121.6 40.368L121.584 40.432C121.584 40.5707 121.653 40.64 121.792 40.64H122.112C122.197 40.64 122.272 40.6027 122.336 40.528L122.592 40.128C122.656 40.032 122.752 40.0053 122.88 40.048C123.008 40.0907 123.179 40.1653 123.392 40.272C123.605 40.368 123.808 40.4693 124 40.576C124.021 40.5867 124.037 40.5867 124.048 40.576C124.069 40.5547 124.075 40.5333 124.064 40.512C124.043 40.448 124.069 40.416 124.144 40.416C124.272 40.4267 124.469 40.4427 124.736 40.464C125.013 40.4853 125.285 40.496 125.552 40.496H126.032C126.117 40.496 126.187 40.464 126.24 40.4C126.293 40.336 126.32 40.2667 126.32 40.192V39.12C126.32 39.0347 126.293 38.9653 126.24 38.912C126.187 38.8587 126.117 38.832 126.032 38.832H124.672C124.373 38.832 124.096 38.8373 123.84 38.848C123.595 38.8587 123.392 38.8693 123.232 38.88H123.2C123.029 38.88 122.917 38.7947 122.864 38.624L122.816 38.496L122.8 38.448C122.8 38.3947 122.821 38.3467 122.864 38.304C122.917 38.2613 122.976 38.2453 123.04 38.256C123.221 38.2667 123.461 38.288 123.76 38.32C124.059 38.3413 124.357 38.352 124.656 38.352H126.032C126.224 38.352 126.32 38.2507 126.32 38.048V37.072C126.32 36.9867 126.293 36.9173 126.24 36.864C126.187 36.8107 126.117 36.784 126.032 36.784H125.472C125.269 36.784 125.072 36.7893 124.88 36.8C124.699 36.8 124.544 36.8053 124.416 36.816H124.384C124.213 36.816 124.101 36.7307 124.048 36.56L124.032 36.496V36.432C124.032 36.3787 124.053 36.3307 124.096 36.288C124.139 36.2453 124.187 36.2293 124.24 36.24C124.389 36.2507 124.576 36.2667 124.8 36.288C125.035 36.2987 125.259 36.304 125.472 36.304H126.032C126.117 36.304 126.187 36.272 126.24 36.208C126.293 36.144 126.32 36.0747 126.32 36C126.32 35.7227 126.304 35.4987 126.272 35.328C126.251 35.1573 126.219 35.0347 126.176 34.96C126.144 34.8853 126.144 34.816 126.176 34.752C126.197 34.7093 126.251 34.688 126.336 34.688C126.485 34.688 126.704 34.704 126.992 34.736C127.28 34.768 127.568 34.8053 127.856 34.848C128.144 34.8907 128.357 34.928 128.496 34.96C128.624 34.992 128.688 35.072 128.688 35.2C128.688 35.3707 128.603 35.4667 128.432 35.488C128.315 35.4987 128.235 35.5307 128.192 35.584C128.149 35.6267 128.128 35.7013 128.128 35.808V36C128.128 36.0747 128.155 36.144 128.208 36.208C128.272 36.272 128.341 36.304 128.416 36.304H129.36C129.477 36.304 129.568 36.256 129.632 36.16C129.653 36.1067 129.696 36.0267 129.76 35.92C129.824 35.8133 129.872 35.728 129.904 35.664C129.957 35.5787 130.021 35.536 130.096 35.536C130.117 35.536 130.139 35.5413 130.16 35.552C130.181 35.552 130.208 35.5573 130.24 35.568C130.379 35.6107 130.549 35.6747 130.752 35.76C130.965 35.8453 131.173 35.9413 131.376 36.048C131.589 36.144 131.755 36.2293 131.872 36.304C131.989 36.368 132.048 36.4693 132.048 36.608C132.048 36.736 131.979 36.832 131.84 36.896C131.808 36.9067 131.776 36.9173 131.744 36.928C131.723 36.9387 131.701 36.9547 131.68 36.976C131.509 37.072 131.424 37.264 131.424 37.552V38.08C131.424 38.1653 131.467 38.208 131.552 38.208C131.605 38.208 131.648 38.1867 131.68 38.144C131.733 38.048 131.808 37.9253 131.904 37.776C132 37.616 132.075 37.4987 132.128 37.424C132.181 37.36 132.235 37.328 132.288 37.328C132.352 37.328 132.405 37.3493 132.448 37.392C132.608 37.5307 132.784 37.7173 132.976 37.952C133.179 38.1867 133.333 38.3733 133.44 38.512C133.472 38.5547 133.488 38.6027 133.488 38.656C133.488 38.7733 133.44 38.832 133.344 38.832H131.744C131.669 38.832 131.6 38.8587 131.536 38.912C131.483 38.9653 131.456 39.0347 131.456 39.12C131.477 39.5573 131.493 39.9467 131.504 40.288C131.525 40.6293 131.536 40.8427 131.536 40.928C131.536 41.0453 131.456 41.1467 131.296 41.232C131.147 41.3173 130.955 41.3813 130.72 41.424C130.496 41.4667 130.267 41.488 130.032 41.488C129.819 41.488 129.685 41.4027 129.632 41.232C129.6 41.0613 129.488 40.976 129.296 40.976H128.416C128.341 40.976 128.272 41.0027 128.208 41.056C128.155 41.1093 128.128 41.1787 128.128 41.264V42.24C128.128 42.3147 128.155 42.384 128.208 42.448C128.272 42.5013 128.341 42.528 128.416 42.528H129.648C129.819 42.528 129.936 42.48 130 42.384C130.064 42.2987 130.155 42.1653 130.272 41.984C130.4 41.8027 130.491 41.6747 130.544 41.6C130.587 41.5253 130.651 41.488 130.736 41.488C130.821 41.488 130.96 41.5627 131.152 41.712C131.344 41.8613 131.536 42.0267 131.728 42.208C131.931 42.3893 132.075 42.5387 132.16 42.656C132.213 42.7307 132.24 42.7893 132.24 42.832C132.24 42.9493 132.181 43.008 132.064 43.008H128.416C128.341 43.008 128.272 43.04 128.208 43.104C128.155 43.1573 128.128 43.2267 128.128 43.312C128.128 43.4613 128.128 43.6107 128.128 43.76C128.128 43.9093 128.133 44.0587 128.144 44.208C128.144 44.2827 128.171 44.352 128.224 44.416C128.288 44.4693 128.357 44.496 128.432 44.496H130.192C130.363 44.496 130.48 44.4427 130.544 44.336C130.587 44.2827 130.645 44.2027 130.72 44.096C130.805 43.9787 130.885 43.8613 130.96 43.744C131.045 43.6267 131.104 43.5467 131.136 43.504C131.179 43.4293 131.237 43.392 131.312 43.392C131.365 43.392 131.461 43.44 131.6 43.536C131.739 43.632 131.893 43.7493 132.064 43.888C132.245 44.0267 132.411 44.1653 132.56 44.304C132.709 44.432 132.816 44.5387 132.88 44.624C132.923 44.6773 132.944 44.736 132.944 44.8C132.944 44.9173 132.891 44.976 132.784 44.976H128.448C128.373 44.976 128.304 45.008 128.24 45.072C128.187 45.1253 128.16 45.1947 128.16 45.28L128.192 46.24C128.192 46.3573 128.112 46.4587 127.952 46.544C127.792 46.6293 127.595 46.6987 127.36 46.752C127.136 46.7947 126.907 46.816 126.672 46.816C126.395 46.816 126.256 46.688 126.256 46.432L126.288 45.28C126.288 45.1947 126.261 45.1253 126.208 45.072C126.155 45.008 126.085 44.976 126 44.976H124.192C124.021 44.976 123.845 44.9813 123.664 44.992C123.493 44.992 123.344 44.9973 123.216 45.008C123.013 45.0293 122.869 45.1253 122.784 45.296C122.731 45.4027 122.672 45.504 122.608 45.6C122.544 45.696 122.485 45.792 122.432 45.888C122.4 45.9307 122.384 45.984 122.384 46.048C122.384 46.144 122.432 46.2187 122.528 46.272C123.52 46.7733 124.971 47.024 126.88 47.024C128.181 47.024 129.344 46.9867 130.368 46.912C131.403 46.8373 132.331 46.752 133.152 46.656H133.184C133.237 46.656 133.275 46.6773 133.296 46.72C133.317 46.752 133.312 46.7947 133.28 46.848C133.12 47.104 132.976 47.3867 132.848 47.696C132.72 48.0053 132.629 48.2987 132.576 48.576C132.544 48.7573 132.432 48.848 132.24 48.848H127.984C126.437 48.848 125.163 48.7093 124.16 48.432C123.157 48.1547 122.357 47.7547 121.76 47.232C121.717 47.1893 121.653 47.168 121.568 47.168C121.472 47.168 121.397 47.1947 121.344 47.248C120.971 47.6427 120.571 47.9893 120.144 48.288C119.717 48.5973 119.264 48.8747 118.784 49.12ZM124.176 44.496H126.016C126.101 44.496 126.171 44.4693 126.224 44.416C126.277 44.352 126.304 44.2827 126.304 44.208C126.315 44.0587 126.32 43.9093 126.32 43.76C126.32 43.6 126.32 43.4507 126.32 43.312C126.32 43.2267 126.293 43.1573 126.24 43.104C126.187 43.04 126.117 43.008 126.032 43.008H124.864C124.693 43.008 124.528 43.0133 124.368 43.024C124.219 43.024 124.085 43.0293 123.968 43.04C123.776 43.0613 123.648 43.1627 123.584 43.344C123.541 43.4827 123.493 43.6267 123.44 43.776C123.397 43.9147 123.349 44.0533 123.296 44.192C123.275 44.2347 123.264 44.2613 123.264 44.272C123.264 44.3893 123.333 44.4587 123.472 44.48C123.589 44.4907 123.707 44.496 123.824 44.496C123.952 44.496 124.069 44.496 124.176 44.496ZM124.864 42.528H126.032C126.117 42.528 126.187 42.5013 126.24 42.448C126.293 42.384 126.32 42.3147 126.32 42.24V41.264C126.32 41.1787 126.293 41.1093 126.24 41.056C126.187 41.0027 126.117 40.976 126.032 40.976H125.552C125.445 40.976 125.339 40.976 125.232 40.976C125.125 40.976 125.024 40.9813 124.928 40.992C124.747 40.992 124.629 41.072 124.576 41.232C124.555 41.2747 124.528 41.312 124.496 41.344C124.464 41.376 124.421 41.3973 124.368 41.408C124.283 41.4293 124.229 41.4453 124.208 41.456C124.069 41.52 123.995 41.6427 123.984 41.824L123.888 42.208C123.877 42.2187 123.872 42.2347 123.872 42.256C123.872 42.4053 123.952 42.4907 124.112 42.512C124.229 42.5227 124.352 42.528 124.48 42.528C124.608 42.528 124.736 42.528 124.864 42.528ZM128.416 40.496H129.328C129.413 40.496 129.483 40.464 129.536 40.4C129.589 40.336 129.616 40.2667 129.616 40.192V39.12C129.616 39.0347 129.589 38.9653 129.536 38.912C129.483 38.8587 129.413 38.832 129.328 38.832H128.416C128.341 38.832 128.272 38.8587 128.208 38.912C128.155 38.9653 128.128 39.0347 128.128 39.12V40.192C128.128 40.2667 128.155 40.336 128.208 40.4C128.272 40.464 128.341 40.496 128.416 40.496ZM128.416 38.352H129.328C129.52 38.352 129.616 38.2507 129.616 38.048V37.072C129.616 36.9867 129.589 36.9173 129.536 36.864C129.483 36.8107 129.413 36.784 129.328 36.784H128.416C128.341 36.784 128.272 36.8107 128.208 36.864C128.155 36.9173 128.128 36.9867 128.128 37.072V38.048C128.128 38.2507 128.224 38.352 128.416 38.352ZM139.168 49.152C139.072 49.152 139.008 49.104 138.976 49.008V48.976C138.976 48.8907 139.019 48.8373 139.104 48.816C140.907 48.3893 142.357 47.584 143.456 46.4C143.52 46.336 143.552 46.2507 143.552 46.144C143.552 46.112 143.547 46.08 143.536 46.048C143.525 46.016 143.509 45.984 143.488 45.952C142.827 45.0027 142.432 43.8613 142.304 42.528C142.293 42.4427 142.256 42.3733 142.192 42.32C142.139 42.2667 142.069 42.24 141.984 42.24C141.867 42.2507 141.76 42.256 141.664 42.256C141.568 42.256 141.483 42.2613 141.408 42.272H141.376C141.205 42.272 141.093 42.1867 141.04 42.016L141.008 41.92V41.872C141.008 41.8187 141.029 41.7707 141.072 41.728C141.115 41.6853 141.168 41.6693 141.232 41.68C141.381 41.6907 141.573 41.7067 141.808 41.728C142.043 41.7387 142.299 41.744 142.576 41.744H145.616C145.755 41.744 145.84 41.7067 145.872 41.632C145.904 41.5787 145.947 41.52 146 41.456C146.053 41.3813 146.101 41.3067 146.144 41.232C146.187 41.1573 146.24 41.12 146.304 41.12C146.325 41.12 146.347 41.1253 146.368 41.136C146.389 41.136 146.416 41.1413 146.448 41.152C146.597 41.2053 146.789 41.296 147.024 41.424C147.269 41.5413 147.515 41.664 147.76 41.792C148.005 41.92 148.192 42.0267 148.32 42.112C148.405 42.1653 148.448 42.2507 148.448 42.368C148.448 42.432 148.427 42.496 148.384 42.56C148.341 42.6133 148.272 42.6507 148.176 42.672L147.968 42.72C147.819 42.7733 147.685 42.912 147.568 43.136C147.333 43.6267 147.088 44.0853 146.832 44.512C146.576 44.928 146.309 45.312 146.032 45.664C146.011 45.6853 146 45.728 146 45.792C146 45.888 146.043 45.952 146.128 45.984C146.619 46.1653 147.131 46.3093 147.664 46.416C148.197 46.512 148.741 46.5813 149.296 46.624C149.349 46.624 149.387 46.6507 149.408 46.704C149.429 46.7467 149.419 46.7893 149.376 46.832C149.109 47.0987 148.864 47.3973 148.64 47.728C148.427 48.0587 148.256 48.368 148.128 48.656C148.053 48.8373 147.931 48.9013 147.76 48.848C146.608 48.5173 145.611 48.016 144.768 47.344C144.715 47.2907 144.64 47.264 144.544 47.264C144.448 47.264 144.373 47.2853 144.32 47.328C143.616 47.84 142.837 48.2347 141.984 48.512C141.141 48.7893 140.203 49.0027 139.168 49.152ZM135.712 48.912C135.381 48.912 135.216 48.7627 135.216 48.464C135.216 48.3893 135.227 48.2027 135.248 47.904C135.269 47.6053 135.285 47.232 135.296 46.784C135.317 46.3253 135.328 45.8347 135.328 45.312C135.328 44.7893 135.323 44.3467 135.312 43.984C135.301 43.6213 135.28 43.392 135.248 43.296C135.227 43.2213 135.237 43.1627 135.28 43.12C135.323 43.0773 135.381 43.0667 135.456 43.088C135.648 43.1413 135.909 43.2373 136.24 43.376C136.581 43.504 136.885 43.6267 137.152 43.744C137.237 43.776 137.328 43.792 137.424 43.792H138.416C138.533 43.792 138.619 43.7493 138.672 43.664L138.944 43.2C138.987 43.1147 139.051 43.072 139.136 43.072C139.157 43.072 139.237 43.0987 139.376 43.152C139.525 43.1947 139.696 43.2533 139.888 43.328C140.091 43.4027 140.288 43.4827 140.48 43.568C140.672 43.6427 140.827 43.712 140.944 43.776C141.051 43.8293 141.104 43.92 141.104 44.048C141.104 44.1973 141.035 44.304 140.896 44.368C140.864 44.3787 140.816 44.4053 140.752 44.448C140.624 44.5653 140.56 44.7413 140.56 44.976C140.56 45.1893 140.565 45.44 140.576 45.728C140.587 46.016 140.597 46.2987 140.608 46.576C140.619 46.8427 140.629 47.0773 140.64 47.28C140.651 47.472 140.656 47.584 140.656 47.616C140.656 47.8187 140.512 47.9787 140.224 48.096C139.947 48.224 139.605 48.288 139.2 48.288C138.901 48.288 138.741 48.1653 138.72 47.92C138.677 47.728 138.571 47.632 138.4 47.632H137.44C137.248 47.632 137.152 47.7333 137.152 47.936V48.24C137.152 48.4427 137.013 48.6027 136.736 48.72C136.459 48.848 136.117 48.912 135.712 48.912ZM140.816 41.392C140.773 41.4133 140.741 41.424 140.72 41.424C140.677 41.424 140.635 41.4027 140.592 41.36C140.517 41.2747 140.517 41.1947 140.592 41.12C140.88 40.8107 141.115 40.4907 141.296 40.16C141.477 39.8293 141.611 39.424 141.696 38.944C141.781 38.4533 141.824 37.824 141.824 37.056C141.824 36.6293 141.803 36.2453 141.76 35.904C141.728 35.5627 141.685 35.3227 141.632 35.184C141.6 35.1307 141.605 35.0827 141.648 35.04C141.669 34.9973 141.717 34.9867 141.792 35.008C141.984 35.0507 142.256 35.136 142.608 35.264C142.96 35.392 143.269 35.5147 143.536 35.632C143.589 35.6427 143.637 35.6587 143.68 35.68C143.733 35.6907 143.781 35.696 143.824 35.696H144.416C144.533 35.696 144.624 35.6427 144.688 35.536C144.709 35.4933 144.736 35.44 144.768 35.376C144.811 35.3013 144.853 35.232 144.896 35.168C144.939 35.0613 145.024 35.0293 145.152 35.072C145.291 35.1147 145.461 35.1787 145.664 35.264C145.877 35.3387 146.085 35.424 146.288 35.52C146.501 35.6053 146.677 35.6907 146.816 35.776C146.901 35.8187 146.944 35.8933 146.944 36C146.944 36.1067 146.896 36.192 146.8 36.256C146.747 36.2667 146.699 36.2933 146.656 36.336C146.56 36.3893 146.491 36.4587 146.448 36.544C146.416 36.6187 146.4 36.7307 146.4 36.88V38.544C146.4 38.6507 146.427 38.72 146.48 38.752C146.533 38.784 146.608 38.8053 146.704 38.816C146.928 38.816 147.136 38.8 147.328 38.768C147.413 38.7467 147.483 38.7147 147.536 38.672C147.6 38.6187 147.664 38.496 147.728 38.304C147.781 38.1333 147.84 37.936 147.904 37.712C147.968 37.4773 148.027 37.2533 148.08 37.04C148.144 36.8267 148.192 36.6613 148.224 36.544C148.256 36.448 148.325 36.4107 148.432 36.432C148.528 36.432 148.576 36.4907 148.576 36.608C148.576 36.7467 148.571 36.9333 148.56 37.168C148.549 37.392 148.539 37.6107 148.528 37.824C148.517 38.0267 148.512 38.1653 148.512 38.24C148.512 38.3467 148.533 38.432 148.576 38.496C148.629 38.5493 148.704 38.5973 148.8 38.64C148.971 38.704 149.104 38.8107 149.2 38.96C149.307 39.0987 149.36 39.248 149.36 39.408C149.36 39.6427 149.296 39.8347 149.168 39.984C149.051 40.1333 148.837 40.256 148.528 40.352C148.304 40.4267 147.968 40.48 147.52 40.512C147.083 40.5333 146.667 40.544 146.272 40.544C146.165 40.544 146.059 40.544 145.952 40.544C145.856 40.5333 145.765 40.528 145.68 40.528C145.307 40.5067 145.045 40.4427 144.896 40.336C144.747 40.2187 144.672 40.0267 144.672 39.76V36.464C144.672 36.3787 144.645 36.3093 144.592 36.256C144.539 36.2027 144.469 36.176 144.384 36.176H143.84C143.765 36.176 143.696 36.2027 143.632 36.256C143.579 36.3093 143.552 36.3787 143.552 36.464V36.864C143.552 37.7067 143.435 38.4107 143.2 38.976C142.965 39.5413 142.64 40.016 142.224 40.4C141.819 40.7733 141.349 41.104 140.816 41.392ZM144.208 44.928C144.261 44.96 144.315 44.976 144.368 44.976C144.475 44.976 144.549 44.9333 144.592 44.848C144.795 44.5067 144.981 44.144 145.152 43.76C145.333 43.3653 145.499 42.9493 145.648 42.512C145.659 42.4907 145.664 42.464 145.664 42.432C145.664 42.2933 145.595 42.224 145.456 42.224H142.992C142.917 42.224 142.853 42.256 142.8 42.32C142.757 42.3733 142.741 42.4427 142.752 42.528C142.859 43.0187 143.035 43.4667 143.28 43.872C143.536 44.2667 143.845 44.6187 144.208 44.928ZM135.152 38.352H135.12C134.949 38.352 134.837 38.2667 134.784 38.096L134.752 38.016L134.736 37.968C134.736 37.904 134.757 37.8507 134.8 37.808C134.853 37.7653 134.912 37.7493 134.976 37.76C135.157 37.7707 135.387 37.7867 135.664 37.808C135.941 37.8293 136.229 37.84 136.528 37.84H138.4C138.56 37.84 138.677 37.7813 138.752 37.664C138.805 37.5893 138.907 37.456 139.056 37.264C139.205 37.072 139.317 36.928 139.392 36.832C139.445 36.768 139.515 36.736 139.6 36.736C139.664 36.736 139.717 36.7467 139.76 36.768C139.899 36.8427 140.059 36.9493 140.24 37.088C140.432 37.2267 140.613 37.3707 140.784 37.52C140.955 37.6587 141.083 37.7813 141.168 37.888C141.221 37.9627 141.248 38.0267 141.248 38.08C141.248 38.24 141.184 38.32 141.056 38.32H136.544C136.224 38.32 135.947 38.3253 135.712 38.336C135.477 38.336 135.291 38.3413 135.152 38.352ZM137.44 47.152H138.416C138.501 47.152 138.571 47.1253 138.624 47.072C138.677 47.008 138.704 46.9387 138.704 46.864V44.576C138.704 44.4907 138.677 44.4213 138.624 44.368C138.571 44.304 138.501 44.272 138.416 44.272H137.44C137.365 44.272 137.296 44.304 137.232 44.368C137.179 44.4213 137.152 44.4907 137.152 44.576V46.864C137.152 46.9387 137.179 47.008 137.232 47.072C137.296 47.1253 137.365 47.152 137.44 47.152ZM135.664 36.352H135.632C135.451 36.352 135.339 36.2667 135.296 36.096L135.28 36.016L135.264 35.952C135.264 35.8987 135.285 35.8507 135.328 35.808C135.371 35.7653 135.424 35.7493 135.488 35.76C135.637 35.7707 135.819 35.7867 136.032 35.808C136.256 35.8293 136.469 35.84 136.672 35.84H138.272C138.432 35.84 138.544 35.792 138.608 35.696C138.672 35.6107 138.757 35.4987 138.864 35.36C138.971 35.2213 139.061 35.104 139.136 35.008C139.179 34.9333 139.243 34.896 139.328 34.896C139.371 34.896 139.424 34.912 139.488 34.944C139.659 35.0507 139.856 35.2107 140.08 35.424C140.315 35.6267 140.501 35.808 140.64 35.968C140.683 36.0107 140.704 36.064 140.704 36.128C140.704 36.256 140.64 36.32 140.512 36.32H136.688C136.496 36.32 136.309 36.3253 136.128 36.336C135.947 36.336 135.792 36.3413 135.664 36.352ZM135.776 40.368H135.728C135.557 40.368 135.451 40.2827 135.408 40.112L135.376 40.032L135.36 39.984C135.36 39.92 135.381 39.8667 135.424 39.824C135.477 39.7813 135.531 39.7653 135.584 39.776C135.733 39.7867 135.92 39.8027 136.144 39.824C136.368 39.8453 136.581 39.856 136.784 39.856H138.288C138.448 39.856 138.56 39.808 138.624 39.712C138.688 39.6267 138.768 39.5147 138.864 39.376C138.971 39.2373 139.061 39.1147 139.136 39.008C139.189 38.944 139.248 38.912 139.312 38.912C139.365 38.912 139.424 38.928 139.488 38.96C139.659 39.0667 139.861 39.2267 140.096 39.44C140.331 39.6427 140.517 39.824 140.656 39.984C140.699 40.0267 140.72 40.0747 140.72 40.128C140.72 40.2667 140.656 40.336 140.528 40.336H136.784C136.603 40.336 136.416 40.3413 136.224 40.352C136.043 40.352 135.893 40.3573 135.776 40.368ZM135.776 42.32H135.728C135.557 42.32 135.451 42.2347 135.408 42.064L135.376 41.984L135.36 41.936C135.36 41.8827 135.381 41.8347 135.424 41.792C135.477 41.7387 135.531 41.7173 135.584 41.728C135.733 41.7387 135.92 41.7547 136.144 41.776C136.368 41.7973 136.581 41.808 136.784 41.808H138.288C138.448 41.808 138.56 41.76 138.624 41.664C138.688 41.5787 138.768 41.4667 138.864 41.328C138.971 41.1893 139.061 41.072 139.136 40.976C139.179 40.9013 139.243 40.864 139.328 40.864C139.371 40.864 139.424 40.88 139.488 40.912C139.659 41.0187 139.861 41.1787 140.096 41.392C140.331 41.5947 140.517 41.776 140.656 41.936C140.699 41.9787 140.72 42.0267 140.72 42.08C140.72 42.2187 140.656 42.288 140.528 42.288H136.784C136.603 42.288 136.416 42.2933 136.224 42.304C136.043 42.304 135.893 42.3093 135.776 42.32Z" fill="white"/>
<g clip-path="url(#clip0_72_4)">
<path fill-rule="evenodd" clip-rule="evenodd" d="M20.5067 8.45564C18.8585 8.45564 17.5225 7.12171 17.5225 5.4766C17.5225 3.83149 18.8587 2.49756 20.5067 2.49756C22.1547 2.49756 23.491 3.83149 23.491 5.4766C23.491 7.12171 22.1547 8.45564 20.5067 8.45564ZM17.5615 17.8661C19.903 19.0235 21.9518 20.6818 23.5671 22.7009C25.9882 25.7275 27.4357 29.5643 27.4357 33.7387C27.4357 37.6105 26.1904 41.1922 24.0777 44.1059C23.4174 45.0165 22.6725 45.8622 21.8544 46.6308C26.8417 50.2711 31.2764 50.0962 36.9199 48.8848C37.2467 48.4569 37.5724 48.002 37.8969 47.5182L38.6343 50.1873C40.25 45.8824 41.307 41.7066 40.9394 37.0498C38.6375 40.0135 35.8736 42.499 32.7115 44.573C34.5898 44.6796 36.449 44.6043 38.2889 44.3429C37.3307 44.649 36.3123 44.8687 35.2466 45.0216C32.835 47.762 28.5472 49.6673 26.581 48.9099C26.0697 48.683 25.6507 48.3857 25.3121 48.0273C28.7705 44.2646 30.8816 39.2475 30.8816 33.7385C30.8816 27.3981 28.0856 21.7097 23.6572 17.8349L38.1578 15.6457V12.9225H23.322C23.3004 12.0272 23.2907 11.1179 23.2691 10.2092C24.8982 9.25966 25.9926 7.49545 25.9926 5.4766C25.9929 2.45191 23.5367 0 20.5067 0C17.4768 0 15.0206 2.45191 15.0206 5.4766C15.0206 7.49568 16.1152 9.25966 17.7442 10.2092C17.7223 11.1182 17.7128 12.0274 17.6912 12.9225H2.85547V15.6457C7.7574 16.3858 12.6596 17.1261 17.5615 17.8661Z" fill="#64A2B3"/>
<path fill-rule="evenodd" clip-rule="evenodd" d="M5.95659 51.0437C10.7715 55.9506 15.7753 56.2694 20.5066 60.0001C23.5902 57.5684 26.7901 56.5862 29.9776 54.8384C31.6804 53.9049 33.3797 52.7526 35.0562 51.0442C23.7689 53.4672 13.5795 44.9265 13.5795 33.7388C13.5795 29.5658 15.0263 25.7296 17.4463 22.7038C17.9738 22.0439 18.5481 21.4225 19.1634 20.8446C18.637 20.459 18.0866 20.1052 17.5159 19.7859C17.2798 19.6539 17.0403 19.5276 16.7973 19.4076C16.5552 19.2878 16.3105 19.1747 16.0633 19.0679C12.3918 22.8697 10.1339 28.0411 10.1339 33.7388C10.1339 39.4364 12.2444 44.264 15.7024 48.0267C15.3633 48.3856 14.9441 48.6831 14.4323 48.9102C12.4663 49.6674 8.17834 47.7621 5.76672 45.0219C4.7011 44.869 3.6826 44.6494 2.72446 44.3433C4.56439 44.6046 6.42359 44.6799 8.30182 44.5734C5.16254 42.5144 2.37838 40.0173 0.0739923 37.0501C-0.123533 39.5511 0.0886152 41.8805 0.548889 44.1062C0.978757 46.186 1.63377 48.2014 2.37884 50.1876L3.11626 47.5186C4.05328 48.916 5.00099 50.0703 5.95659 51.0437Z" fill="#B2E063"/>
</g>
<defs>
<clipPath id="clip0_72_4">
<rect width="41.0127" height="60" fill="white"/>
</clipPath>
</defs>
</svg>
